<?xml version="1.0" encoding="UTF-8"?>
<svg id="Layer_2" data-name="Layer 2" xmlns="http://www.w3.org/2000/svg" viewBox="0 0 911.33 193.26">
  <defs>
    <style>
      .cls-1, .cls-2 {
        stroke-width: 0px;
      }

      .cls-2 {
        fill: #6e4dcd;
      }
    </style>
  </defs>
  <g id="Layer_1-2" data-name="Layer 1">
    <g>
      <path class="cls-2" d="m59.81,1.66c-6.9,2.5-12.1,6-16.9,11.2-4,4.3-34.9,57.1-40.2,68.6C.31,86.46.01,88.56.01,96.76c-.1,8.5.3,10.2,3,16,5.5,11.8,37.4,65.4,41.2,69.3,2,2.1,7.1,5.5,11.1,7.5l7.5,3.7h86.1l7-3.4c9.1-4.5,14.9-10.5,21.4-22.1,3-5.2,10.3-18,16.4-28.3,16-27.7,16.9-29.6,17.5-39.3.8-13.9.9-13.7-28.6-64.8-12.9-22.1-16.8-26.8-27-31.8l-6.7-3.3-42-.2C68.41-.14,64.51.06,59.81,1.66Zm-5.4,68.9c2.4,1.4,3.4,1.2,14-2.3,15.4-5.1,25.3-5.8,32.4-2.2l4.8,2.5,4.6-2.4c7.3-3.9,15.8-3.4,31.2,1.7l12.5,4.2,9-5.2c4.9-2.8,9.2-5.1,9.6-5.1s1.5.7,2.3,1.6c1.4,1.3,1.6,5.1,1.6,25.7,0,13.3-.4,24.7-.8,25.4-.4.6-5,3.1-10.2,5.6-5.2,2.4-17.6,9.7-27.5,16.2s-19.8,12.6-22,13.6c-4.9,2.3-14.2,2.5-19.2.4-2.8-1.2-4.4-1.3-7.6-.4-7.4,2-11,.6-28.4-10.9-9-5.9-16.5-11.5-16.8-12.4-.4-1-.1-2.6.4-3.7.9-1.6.6-2.3-1.8-4-1.6-1.2-3.4-2.1-3.9-2.1-.6,0-1.8-.7-2.6-1.6-1.4-1.3-1.6-5.1-1.6-25.9,0-32.2-1.3-30.9,20-18.7Z"/>
      <path class="cls-2" d="m77.91,74.36c-4.4,1.4-11.2,3.4-15.2,4.5l-7.2,2.1-6.6-3.6-6.5-3.7v17.8l.1,17.8,4.2,2.6,4.2,2.5,4.3-2.7c5.8-3.7,11.1-4.5,15.2-2.4,1.7.9,6.7,4.2,11,7.3s10.8,7.7,14.4,10.2,6.8,5.3,7.1,6.2-.3,3.5-1.4,5.7l-2.1,3.9,3.9.7c5.8,1,9.5-.5,21.1-8.2,5.8-3.8,12.2-7.9,14.3-9.2l3.7-2.3-3-3.6c-1.6-2.1-6.9-7.9-11.8-13.1l-8.8-9.4-6.3,4.6c-6.7,5-10.8,6.3-17.4,5.4-3.4-.4-5-1.5-8.4-5.2-6.3-6.9-6-8.3,4.3-18.6l8.7-8.7-3.1-1.6c-4.2-2.1-9.1-1.9-18.7,1Z"/>
      <path class="cls-2" d="m115.41,73.26c-1.9.9-8.1,6.2-13.7,11.8l-10.3,10.1,2.2,2.3c3.2,3.4,6.7,2.9,13.9-2.2,9.5-6.7,11.6-7.7,13.7-6.6,1,.5,6.5,6,12.2,12.3,5.7,6.2,11.6,12.6,13.1,14.2l2.8,2.9,9.5-4.3,9.6-4.4v-35.6l-6.8,3.7-6.8,3.7-12.9-4.3c-15.1-5-21.5-5.8-26.5-3.6Z"/>
      <path class="cls-2" d="m60.91,117.96c-2.7,1.5-6.5,5-6.5,6,0,1.3,27.2,18.8,29.2,18.8,2.8,0,7.6-2.7,8.8-5.1,1.3-2.3,1.2-2.3-6.5-7.6-2.2-1.5-7.3-5.1-11.2-8-7.3-5.3-10.1-6.2-13.8-4.1Z"/>
      <path class="cls-1" d="m283.41,64.76c-4.2.4-9,1.5-10.8,2.4l-3.2,1.7v54.9l2.6,1.7c8.9,5.8,33.8,5.4,42.8-.8,9.6-6.5,9.9-21.6.5-27.2l-3.8-2.3,3.4-2.7c6.2-4.9,7.1-14.5,1.9-20.6-4.9-5.8-18.1-8.6-33.4-7.1Zm16.5,15.5c3,2.9,3.1,4.9.5,7.5-1.6,1.6-3.3,2-8,2h-6v-5.3c0-3,.3-5.7.7-6,.3-.4,2.8-.7,5.5-.7,3.9,0,5.4.5,7.3,2.5Zm1.3,24.1c2.6,1.8,3,6.5.6,8.8-2,2.1-5.1,2.8-10.5,2.4l-4.4-.3-.3-6.3-.3-6.2h6.3c4.1,0,7.1.5,8.6,1.6Z"/>
      <path class="cls-1" d="m437.81,64.76c-8.3.9-11.1,2.2-12.4,5.6-1.5,3.7-1.3,50.7.2,53.8,1.6,3.6,8.7,5.5,14.6,4,2.1-.6,2.2-1.1,2.2-10.5v-9.9h2.8c2.3,0,3.4,1.1,7.4,7.7,5.8,9.7,8.5,12.3,13.7,13,4.7.6,8.5-1.3,10.3-5.3,1-2.2.5-3.2-5.2-10.5l-6.2-8.1,3.5-3.6c4.8-5.1,6.7-9.3,6.7-15.1,0-8.5-3.5-14.2-11.2-18.2-3.2-1.6-15.2-4.1-18.3-3.7-.5,0-4.2.4-8.1.8Zm16.3,15.5c1.2.9,2.5,3.1,2.9,5.1.5,2.8.2,4-1.7,6-1.8,2-3.2,2.4-7.6,2.4h-5.3v-15h4.8c2.6,0,5.7.7,6.9,1.5Z"/>
      <path class="cls-1" d="m653.61,64.76c-4,.4-8.4,1.5-9.7,2.4l-2.5,1.6v28c0,23.5.2,28.1,1.5,29.4,2,2,9.6,3.1,13.2,1.9q2.8-1,3.1-10.6c.3-9.3.4-9.7,2.5-9.7,1.7,0,3.5,2,7.6,8.6,5.8,9.2,9.6,12.4,14.9,12.4,3.6,0,9.2-4.5,9.2-7.3,0-.8-2.7-4.9-6-9.2l-6-7.8,3.6-3.6c4.8-4.7,6.4-8.7,6.4-15.8-.1-15.4-14-22.8-37.8-20.3Zm17.3,16.5c3.1,3,3.3,7.7.5,10.5-1.5,1.5-3.3,2-7,2h-5v-15h4.5c3.5,0,5.2.6,7,2.5Z"/>
      <path class="cls-1" d="m364.71,65.86c-2.4.6-4.7,1.8-5.2,2.7-2.3,4.4-16.3,47.7-16.8,52.1-.5,4.8-.5,5,2.6,6.6,2.1,1,5,1.5,8.4,1.3l5.2-.3,1.3-4.5c2.8-9.6,2.1-9.1,11.8-8.8l8.7.3,1.7,5.3c1,3,2.2,5.8,2.8,6.4,2.7,2.7,17.2,1.6,17.2-1.3,0-1.1-12.4-44.2-14.7-50.9-1.3-4-2.6-5.9-5-7.3-3.9-2.2-12.2-3-18-1.6Zm10.6,25.2c1.2,4.2,2.1,8.2,2.1,8.7,0,.6-2.5,1-5.5,1-3.6,0-5.5-.4-5.5-1.2,0-2.5,5.4-17.8,6.1-17,.4.4,1.6,4.2,2.8,8.5Z"/>
      <path class="cls-2" d="m726.11,65.76c-8.3,2.1-7.7-.3-7.7,31,0,27.7,0,27.9,2.2,29.4,1.5,1.1,4.5,1.6,8.5,1.6h6.3v-18.6l9.7-1.2c10.8-1.2,16.1-3.9,19.5-9.9,2.2-3.7,3.3-11.7,2.4-16.8-.9-4.7-6.9-11.3-12.6-13.8-5.2-2.3-21.8-3.3-28.3-1.7Zm17.6,13.1c4.9,1.3,7.3,6,5.6,10.8-1.4,3.9-3.5,5.1-9.3,5.1h-4.6v-7.9c0-9.5.7-10.1,8.3-8Z"/>
      <path class="cls-1" d="m497.71,66.56c-2.1,1.3-3,5.5-2.1,9.9l.9,4.3h15.9v21.8c0,19.6.2,22.1,1.8,23.4,2.6,2.4,5.9,3,11.3,2.3l4.9-.7v-46.6l7-.4c8.1-.4,10.2-1.9,10.2-7.1,0-8.2,1.6-7.7-25-7.7-13,0-24.2.4-24.9.8Z"/>
      <path class="cls-1" d="m575.71,67.26c-4.9,2.1-5.5,5.6-5.1,32,.3,25.6.6,26.8,6.8,28.5,4.8,1.3,31,1.3,34.9-.1,3.7-1.3,4.8-4.5,3.5-9.8l-.9-3.6-13.2-.3-13.3-.3v-9.9h9.5c5.2,0,10.5-.5,11.9-1.1,2.9-1.3,4-5,2.8-9.4l-.8-3-11.7-.3-11.7-.3v-9.9h12.4c13.8,0,14.8-.4,14.8-6.4,0-7.9.8-7.6-19-7.6-12.8.1-18.6.5-20.9,1.5Z"/>
      <path class="cls-2" d="m804.21,66.86c-3,1.1-4.4,4.6-14.2,34.7-7.2,22.3-7.3,24.4-.5,26.2,2.2.6,5.5.8,7.4.4,3.6-.6,3.6-.7,6.1-10.7l.6-2.7h19.6l.7,4.1c.4,2.2,1.7,5.2,3,6.7,2,2.4,3.1,2.7,7.9,2.6,9.7,0,9.7.5,1.6-27.1-8.8-30.7-9.4-32.2-13.6-33.9-3.8-1.6-14.6-1.7-18.6-.3Zm13.5,25.6l2.5,9.3h-6.4q-7.6,0-3.9-11.1c3.8-11.3,3.5-10.6,4.5-8.9.4.8,1.9,5.7,3.3,10.7Z"/>
      <path class="cls-2" d="m862.41,66.46c-.8.3-2.5,1.5-3.7,2.6l-2.3,2,4.3,8.1c2.4,4.5,7.1,12.5,10.5,18l6.2,9.8v8.8c0,10.8,1.1,12,10.2,12h5.8v-20.1l8.6-14.5c9.3-15.7,11-20.9,7.9-24.4-2.4-2.6-6.4-3.3-10.9-1.8-3.6,1.2-4,1.8-8.4,12.5-2.5,6.2-4.8,11.3-5.1,11.3s-3-4.7-5.8-10.3c-2.9-5.7-6.1-11.1-7-12-2-1.7-8-2.9-10.3-2Z"/>
    </g>
  </g>
</svg>